<?xml version="1.0" encoding="iso-8859-1"?>
<!DOCTYPE svg PUBLIC "-//W3C//DTD SVG 1.1//EN" "http://www.w3.org/Graphics/SVG/1.1/DTD/svg11.dtd">
<svg version="1.1" xmlns="http://www.w3.org/2000/svg" xmlns:xlink="http://www.w3.org/1999/xlink" x="0px" y="0px" width="800px"
	 height="800px" viewBox="0 0 800 800" style="enable-background:new 0 0 800 800;" xml:space="preserve">
<g id="Layer_2">
	<polygon style="fill:#BBBDBF;" points="0,199 115,133 345,266 575,133 691,200 345,398 	"/>
	<polygon style="fill:#626366;" points="0,598 0,199 345,398 345,531 115,398 115,664 	"/>
	<polygon style="fill:#9C9EA1;" points="690,598 691,200 345,398 345.5,531 576,398 575,664 	"/>
	<polygon style="fill:#9C9EA1;" points="229,598 229,465 115,398 115,664 	"/>
	<polygon style="fill:#808184;" points="460,598 460,465 576,398 575,664 	"/>
	<polygon style="fill:#BBBDBF;" points="345,0 230,66 345,133 460,66 	"/>
	<polygon style="fill:#BBBDBF;" points="345,797 460,731 345,664 229,731 	"/>
</g>
</svg>
